<?xml version="1.0" standalone="no"?>
<!DOCTYPE svg PUBLIC "-//W3C//DTD SVG 20010904//EN"
 "http://www.w3.org/TR/2001/REC-SVG-20010904/DTD/svg10.dtd">
<svg version="1.0" xmlns="http://www.w3.org/2000/svg"
 width="16.000000pt" height="16.000000pt" viewBox="0 0 16.000000 16.000000"
 preserveAspectRatio="xMidYMid meet">
<metadata>
Created by potrace 1.11, written by Peter Selinger 2001-2013
</metadata>
<g transform="translate(0.000000,16.000000) scale(0.012214,-0.012214)"
fill="#000000" stroke="none">
<path d="M490 1294 c-169 -44 -316 -163 -388 -315 -49 -104 -63 -161 -63 -258
0 -169 54 -302 171 -421 147 -151 330 -208 545 -171 l70 13 112 -61 c156 -85
143 -86 127 6 -8 43 -16 103 -19 133 -6 53 -4 57 32 96 95 102 148 238 152
385 7 261 -158 493 -412 581 -79 27 -247 33 -327 12z m240 -79 c280 -52 468
-344 399 -620 -37 -148 -135 -269 -275 -339 -189 -95 -416 -57 -579 96 -46 44
-55 62 -32 71 7 3 28 44 47 91 l33 86 116 0 116 0 23 -58 c13 -31 24 -61 26
-67 13 -53 16 -55 72 -55 l54 0 0 229 0 230 -42 -2 -43 -2 0 -137 c1 -75 0
-136 -1 -135 -6 6 -164 389 -164 397 0 6 -6 10 -12 11 -7 0 -23 2 -36 5 -21 4
-31 -8 -47 -56 -9 -28 -28 -71 -42 -95 -9 -16 -16 -30 -14 -30 1 0 -2 -13 -8
-28 -6 -16 -11 -30 -11 -32 0 -2 -13 -33 -30 -68 -16 -36 -30 -67 -30 -70 0
-2 -10 -26 -22 -53 -12 -27 -23 -51 -23 -54 -5 -26 -18 -49 -25 -45 -16 10
-51 138 -55 200 -16 257 186 504 435 532 25 3 46 6 47 7 4 3 89 -3 123 -9z
m-274 -362 c4 -16 10 -32 15 -38 4 -5 8 -14 9 -20 5 -23 13 -42 31 -78 17 -34
17 -38 3 -44 -28 -11 -159 -8 -159 4 0 17 80 203 87 203 4 0 11 -12 14 -27z"/>
<path d="M651 1006 c-5 -6 -8 -24 -7 -41 2 -28 5 -30 45 -31 l42 -1 -3 40 c-3
38 -5 41 -36 42 -18 1 -36 -3 -41 -9z"/>
<path d="M773 1009 c-14 -5 -19 -16 -19 -40 l1 -34 98 -2 c101 -1 135 -12 156
-51 29 -54 16 -130 -27 -158 -20 -13 -48 -18 -117 -19 -49 0 -95 -3 -100 -7
-6 -4 -10 -21 -10 -39 l1 -31 113 1 c126 2 147 8 186 47 102 102 55 294 -80
329 -39 11 -178 13 -202 4z"/>
</g>
</svg>
